<svg id="visual" viewBox="0 0 900 50" width="900" height="50" xmlns="http://www.w3.org/2000/svg" xmlns:xlink="http://www.w3.org/1999/xlink" version="1.1"><path d="M0 45L29 10L58 16L87 25L116 14L145 45L174 3L203 36L232 47L261 14L290 42L319 16L348 28L377 36L406 20L435 46L465 32L494 40L523 30L552 19L581 43L610 18L639 33L668 35L697 32L726 6L755 32L784 11L813 47L842 42L871 49L900 15L900 51L871 51L842 51L813 51L784 51L755 51L726 51L697 51L668 51L639 51L610 51L581 51L552 51L523 51L494 51L465 51L435 51L406 51L377 51L348 51L319 51L290 51L261 51L232 51L203 51L174 51L145 51L116 51L87 51L58 51L29 51L0 51Z" fill="#ffffff" stroke-linecap="square" stroke-linejoin="bevel"></path></svg>